<svg width="500" height="500" viewBox="0 0 500 500" fill="none" xmlns="http://www.w3.org/2000/svg">
<path d="M437.083 53.3333C423.735 40.1391 406.186 32.0389 387.486 30.4403C368.785 28.8418 350.116 33.846 334.722 44.5833C384.205 65.1856 424.628 102.897 448.611 150.833C457.868 135.633 461.763 117.768 459.674 100.094C457.584 82.4195 449.63 65.9557 437.083 53.3333Z" fill="#BEBEBE"/>
<path d="M158.611 47.6389C143.281 35.4636 124.025 29.3208 104.476 30.3699C84.9275 31.4189 66.439 39.5873 52.5001 53.3333C38.6761 67.2488 30.4888 85.7863 29.5144 105.377C28.54 124.967 34.8474 144.226 47.2223 159.444C69.5074 109.862 109.112 70.109 158.611 47.6389Z" fill="#BEBEBE"/>
<path d="M227.778 56.8056C191.516 61.0416 157.178 75.4012 128.696 98.2408C100.214 121.08 78.7369 151.477 66.7233 185.953C54.7098 220.428 52.6449 257.59 60.765 293.184C68.8852 328.779 86.8622 361.368 112.639 387.222L77.2222 422.639C75.9364 423.952 74.9217 425.506 74.2363 427.211C73.5509 428.916 73.208 430.74 73.2274 432.578C73.2467 434.416 73.6279 436.232 74.3491 437.922C75.0702 439.613 76.1173 441.145 77.4305 442.431C78.7438 443.716 80.2974 444.731 82.0027 445.416C83.7081 446.102 85.5317 446.445 87.3695 446.425C89.2074 446.406 91.0234 446.025 92.7139 445.304C94.4044 444.583 95.9364 443.535 97.2222 442.222L134.167 405.278C167.952 430.844 209.209 444.586 251.577 444.385C293.945 444.185 335.07 430.052 368.611 404.167L406.667 442.222C409.324 444.498 412.741 445.687 416.237 445.552C419.732 445.417 423.048 443.967 425.522 441.494C427.995 439.02 429.444 435.705 429.579 432.209C429.714 428.714 428.525 425.296 426.25 422.639L388.889 385.833C416.925 357.114 435.388 320.423 441.743 280.794C448.098 241.165 442.035 200.54 424.385 164.494C406.734 128.448 378.362 98.7469 343.161 79.4662C307.961 60.1855 267.656 52.2699 227.778 56.8056ZM271.944 415.278C237.425 419.799 202.356 413.397 171.661 396.97C140.965 380.543 116.185 354.917 100.797 323.687C85.4093 292.458 80.1874 257.194 85.8642 222.846C91.5411 188.497 107.832 156.789 132.449 132.171C157.067 107.554 188.775 91.2633 223.124 85.5865C257.472 79.9096 292.736 85.1315 323.965 100.519C355.194 115.907 380.821 140.688 397.248 171.383C413.675 202.078 420.077 237.147 415.556 271.667C410.786 308.083 394.121 341.904 368.151 367.874C342.181 393.844 308.361 410.508 271.944 415.278Z" fill="#BEBEBE"/>
<path d="M346.111 282.5L261.944 240.833V131.944C261.944 128.629 260.627 125.45 258.283 123.106C255.939 120.761 252.76 119.444 249.444 119.444C246.129 119.444 242.95 120.761 240.606 123.106C238.261 125.45 236.944 128.629 236.944 131.944V256.944L335 305.556C337.984 307.011 341.423 307.221 344.562 306.14C347.7 305.059 350.281 302.775 351.736 299.792C353.191 296.808 353.401 293.368 352.32 290.23C351.239 287.091 348.956 284.511 345.972 283.056L346.111 282.5Z" fill="#BEBEBE"/>
<rect width="500" height="500" fill="url(#paint0_linear_130_16)"/>
<defs>
<linearGradient id="paint0_linear_130_16" x1="233" y1="-176.471" x2="294.337" y2="430.016" gradientUnits="userSpaceOnUse">
<stop stop-color="white" stop-opacity="0"/>
<stop offset="0.0001" stop-color="white" stop-opacity="0"/>
<stop offset="1" stop-color="white"/>
</linearGradient>
</defs>
</svg>
