<svg width="264" height="211" viewBox="0 0 264 211" fill="none" xmlns="http://www.w3.org/2000/svg">
<g clip-path="url(#clip0_5_15)">
<path d="M10.576 167.8C10.4267 167.032 10.3307 166.285 10.288 165.56C10.2453 164.813 10.224 164.152 10.224 163.576C10.224 162.979 10.2453 162.307 10.288 161.56C10.3307 160.813 10.4267 160.056 10.576 159.288H42.256C42.4267 159.821 42.5547 160.451 42.64 161.176C42.7253 161.88 42.768 162.563 42.768 163.224C42.768 164.888 42.3307 166.072 41.456 166.776C40.6027 167.459 39.2587 167.8 37.424 167.8H35.536C35.0667 167.8 34.3947 167.789 33.52 167.768C32.6667 167.747 31.9947 167.736 31.504 167.736H21.232C20.7627 167.736 20.0907 167.747 19.216 167.768C18.3413 167.789 17.6693 167.8 17.2 167.8H10.576ZM21.232 172.472C21.232 171.597 21.2427 170.819 21.264 170.136C21.2853 169.432 21.296 168.632 21.296 167.736V163.512H31.44V167.736C31.44 168.632 31.4507 169.432 31.472 170.136C31.4933 170.819 31.504 171.597 31.504 172.472V203C30.6293 203.149 29.7333 203.245 28.816 203.288C27.8987 203.352 27.088 203.384 26.384 203.384C25.6587 203.384 24.8373 203.352 23.92 203.288C23.0027 203.245 22.1067 203.149 21.232 203V172.472ZM65.126 171.16C65.126 172.333 64.9127 173.837 64.486 175.672C64.0593 177.485 63.4407 179.096 62.63 180.504C62.0753 180.291 61.5207 180.141 60.966 180.056C60.4327 179.971 59.8887 179.896 59.334 179.832C58.4807 179.832 57.7127 179.992 57.03 180.312C56.3473 180.611 55.7287 181.059 55.174 181.656C54.6193 182.253 54.0967 182.989 53.606 183.864C53.1153 184.739 52.646 185.741 52.198 186.872L51.078 185.368C51.1847 183.597 51.4087 181.848 51.75 180.12C52.0913 178.371 52.614 176.781 53.318 175.352C54.022 173.923 54.982 172.781 56.198 171.928C57.4353 171.053 58.9927 170.616 60.87 170.616C61.8513 170.616 62.6407 170.669 63.238 170.776C63.8567 170.861 64.486 170.989 65.126 171.16ZM41.67 175.704C41.8407 174.808 42.2353 173.848 42.854 172.824C43.4727 171.779 44.0913 171.021 44.71 170.552C47.6753 170.765 49.9047 171.864 51.398 173.848C52.9127 175.811 53.8087 178.392 54.086 181.592V203C53.382 203.128 52.5927 203.224 51.718 203.288C50.8433 203.352 49.9687 203.384 49.094 203.384C48.262 203.384 47.398 203.352 46.502 203.288C45.6273 203.224 44.8167 203.128 44.07 203V182.328C44.07 180.429 43.7927 178.947 43.238 177.88C42.7047 176.792 42.182 176.067 41.67 175.704ZM72.57 190.264V183.384H84.634V182.648C84.634 181.667 84.4953 180.771 84.218 179.96C83.9407 179.128 83.4927 178.467 82.874 177.976C82.2767 177.464 81.466 177.208 80.442 177.208C78.8847 177.208 77.786 177.848 77.146 179.128C76.5273 180.408 76.218 182.381 76.218 185.048V188.056C76.218 189.507 76.346 190.861 76.602 192.12C76.858 193.379 77.402 194.392 78.234 195.16C79.066 195.928 80.3353 196.312 82.042 196.312C83.4927 196.312 84.9113 196.131 86.298 195.768C87.706 195.384 89.05 194.925 90.33 194.392C91.0767 195.117 91.674 196.035 92.122 197.144C92.57 198.253 92.8687 199.309 93.018 200.312C91.3967 201.485 89.4553 202.381 87.194 203C84.954 203.64 82.6927 203.96 80.41 203.96C77.594 203.96 75.2687 203.501 73.434 202.584C71.5993 201.645 70.1487 200.387 69.082 198.808C68.0153 197.208 67.258 195.416 66.81 193.432C66.3833 191.427 66.17 189.368 66.17 187.256C66.17 184.035 66.65 181.133 67.61 178.552C68.5913 175.949 70.138 173.891 72.25 172.376C74.362 170.861 77.114 170.104 80.506 170.104C83.322 170.104 85.722 170.701 87.706 171.896C89.69 173.091 91.2047 174.712 92.25 176.76C93.3167 178.787 93.85 181.091 93.85 183.672C93.85 185.101 93.7753 186.296 93.626 187.256C93.498 188.195 93.2847 189.197 92.986 190.264H72.57ZM114.048 195.704C114.283 196.408 114.475 197.176 114.624 198.008C114.773 198.819 114.848 199.629 114.848 200.44C114.848 200.803 114.827 201.187 114.784 201.592C114.763 201.997 114.699 202.36 114.592 202.68C113.632 202.829 112.555 202.968 111.36 203.096C110.165 203.245 108.949 203.32 107.712 203.32C104.811 203.32 102.752 202.605 101.536 201.176C100.341 199.725 99.744 197.475 99.744 194.424V156.344L100.192 155.896H104.096C106.059 155.896 107.445 156.344 108.256 157.24C109.088 158.136 109.504 159.693 109.504 161.912V192.664C109.504 194.691 110.432 195.704 112.288 195.704H114.048ZM133.486 195.704C133.72 196.408 133.912 197.176 134.062 198.008C134.211 198.819 134.286 199.629 134.286 200.44C134.286 200.803 134.264 201.187 134.222 201.592C134.2 201.997 134.136 202.36 134.03 202.68C133.07 202.829 131.992 202.968 130.798 203.096C129.603 203.245 128.387 203.32 127.15 203.32C124.248 203.32 122.19 202.605 120.974 201.176C119.779 199.725 119.182 197.475 119.182 194.424V156.344L119.63 155.896H123.534C125.496 155.896 126.883 156.344 127.694 157.24C128.526 158.136 128.942 159.693 128.942 161.912V192.664C128.942 194.691 129.87 195.704 131.726 195.704H133.486ZM150.016 203C149.312 203.128 148.512 203.224 147.616 203.288C146.741 203.352 145.877 203.384 145.024 203.384C144.192 203.384 143.328 203.352 142.432 203.288C141.557 203.224 140.746 203.128 140 203V181.816C140 180.749 139.776 179.864 139.328 179.16C138.901 178.456 138.122 178.104 136.992 178.104H136.032C135.754 177.016 135.616 175.885 135.616 174.712C135.616 174.157 135.648 173.571 135.712 172.952C135.776 172.312 135.882 171.704 136.032 171.128C137.013 171.021 138.016 170.947 139.04 170.904C140.085 170.84 140.96 170.808 141.664 170.808H143.04C145.194 170.808 146.89 171.501 148.128 172.888C149.386 174.253 150.016 176.109 150.016 178.456V203ZM138.08 162.072C138.08 161.475 138.144 160.856 138.272 160.216C138.4 159.555 138.581 158.925 138.816 158.328C139.37 158.051 140.085 157.816 140.96 157.624C141.856 157.432 142.73 157.336 143.584 157.336C144.458 157.336 145.344 157.432 146.24 157.624C147.157 157.816 147.861 158.051 148.352 158.328C148.586 158.925 148.768 159.565 148.896 160.248C149.024 160.909 149.088 161.517 149.088 162.072C149.088 162.648 149.024 163.267 148.896 163.928C148.768 164.589 148.586 165.208 148.352 165.784C147.861 166.061 147.157 166.296 146.24 166.488C145.344 166.68 144.458 166.776 143.584 166.776C142.73 166.776 141.845 166.691 140.928 166.52C140.01 166.328 139.306 166.083 138.816 165.784C138.581 165.208 138.4 164.589 138.272 163.928C138.144 163.267 138.08 162.648 138.08 162.072ZM161.782 170.616C163.702 170.616 165.142 171.277 166.102 172.6C167.083 173.901 167.574 175.661 167.574 177.88V203C166.87 203.128 166.07 203.224 165.174 203.288C164.299 203.352 163.435 203.384 162.582 203.384C161.75 203.384 160.886 203.352 159.99 203.288C159.115 203.224 158.305 203.128 157.558 203V171.064L158.006 170.616H161.782ZM185.078 195C185.078 196.237 185.195 197.411 185.43 198.52C185.665 199.608 186.081 200.557 186.678 201.368C185.953 201.965 185.046 202.477 183.958 202.904C182.87 203.309 181.697 203.512 180.438 203.512C178.433 203.512 177.035 202.979 176.246 201.912C175.457 200.845 175.062 199.309 175.062 197.304V183.704C175.062 182.253 174.87 181.187 174.486 180.504C174.123 179.8 173.409 179.448 172.342 179.448C171.681 179.448 170.913 179.629 170.038 179.992C169.185 180.333 168.321 180.909 167.446 181.72C166.593 182.531 165.835 183.608 165.174 184.952V176.184C166.689 174.733 168.321 173.421 170.07 172.248C171.841 171.075 173.857 170.488 176.118 170.488C178.081 170.488 179.723 170.979 181.046 171.96C182.369 172.92 183.371 174.253 184.054 175.96C184.737 177.667 185.078 179.64 185.078 181.88V195ZM202.35 203C200.942 203.256 199.289 203.384 197.39 203.384C195.705 203.384 194.094 203.256 192.558 203V156.344L193.006 155.896H196.91C198.873 155.896 200.27 156.344 201.102 157.24C201.934 158.136 202.35 159.693 202.35 161.912V203ZM219.854 195C219.854 196.237 219.971 197.411 220.206 198.52C220.441 199.608 220.846 200.557 221.422 201.368C220.697 201.965 219.79 202.477 218.702 202.904C217.614 203.309 216.441 203.512 215.182 203.512C213.177 203.512 211.779 202.979 210.99 201.912C210.222 200.845 209.838 199.309 209.838 197.304V183.704C209.838 182.253 209.646 181.187 209.262 180.504C208.878 179.8 208.153 179.448 207.086 179.448C206.446 179.448 205.689 179.629 204.814 179.992C203.939 180.355 203.065 180.941 202.19 181.752C201.337 182.541 200.59 183.608 199.95 184.952V176.216C201.443 174.744 203.065 173.421 204.814 172.248C206.585 171.075 208.611 170.488 210.894 170.488C212.835 170.488 214.467 170.979 215.79 171.96C217.134 172.92 218.147 174.253 218.83 175.96C219.513 177.667 219.854 179.64 219.854 181.88V195ZM254.988 187.032C254.988 190.445 254.423 193.421 253.292 195.96C252.161 198.499 250.497 200.472 248.3 201.88C246.124 203.267 243.425 203.96 240.204 203.96C236.961 203.96 234.241 203.256 232.044 201.848C229.847 200.44 228.193 198.467 227.084 195.928C225.975 193.389 225.42 190.424 225.42 187.032C225.42 183.597 225.975 180.621 227.084 178.104C228.215 175.565 229.879 173.603 232.076 172.216C234.273 170.808 236.983 170.104 240.204 170.104C243.447 170.104 246.167 170.808 248.364 172.216C250.561 173.624 252.215 175.597 253.324 178.136C254.433 180.653 254.988 183.619 254.988 187.032ZM235.692 187.032C235.692 188.781 235.788 190.371 235.98 191.8C236.193 193.229 236.62 194.371 237.26 195.224C237.921 196.056 238.903 196.472 240.204 196.472C241.527 196.472 242.508 196.056 243.148 195.224C243.788 194.371 244.204 193.229 244.396 191.8C244.609 190.371 244.716 188.781 244.716 187.032C244.716 185.261 244.609 183.661 244.396 182.232C244.204 180.803 243.788 179.672 243.148 178.84C242.508 177.987 241.527 177.56 240.204 177.56C238.903 177.56 237.921 177.987 237.26 178.84C236.62 179.672 236.193 180.803 235.98 182.232C235.788 183.661 235.692 185.261 235.692 187.032Z" fill="#002516"/>
<g filter="url(#filter0_d_5_15)">
<rect x="66" y="6" width="132" height="132" rx="14" fill="#00C875"/>
</g>
<rect x="86" y="23" width="39" height="93" rx="6" fill="white"/>
<rect x="140" y="23" width="41" height="60" rx="6" fill="white"/>
</g>
<defs>
<filter id="filter0_d_5_15" x="62" y="6" width="140" height="140" filterUnits="userSpaceOnUse" color-interpolation-filters="sRGB">
<feFlood flood-opacity="0" result="BackgroundImageFix"/>
<feColorMatrix in="SourceAlpha" type="matrix" values="0 0 0 0 0 0 0 0 0 0 0 0 0 0 0 0 0 0 127 0" result="hardAlpha"/>
<feOffset dy="4"/>
<feGaussianBlur stdDeviation="2"/>
<feComposite in2="hardAlpha" operator="out"/>
<feColorMatrix type="matrix" values="0 0 0 0 0 0 0 0 0 0 0 0 0 0 0 0 0 0 0.25 0"/>
<feBlend mode="normal" in2="BackgroundImageFix" result="effect1_dropShadow_5_15"/>
<feBlend mode="normal" in="SourceGraphic" in2="effect1_dropShadow_5_15" result="shape"/>
</filter>
<clipPath id="clip0_5_15">
<rect width="264" height="211" fill="white"/>
</clipPath>
</defs>
</svg>
